<svg width="148" height="46" viewBox="0 0 148 46" fill="none" xmlns="http://www.w3.org/2000/svg">
<path d="M0 22.708V22.1003H0.843359C1.77767 22.1003 2.40192 21.8605 2.71611 21.381C3.03857 20.9014 3.1998 20.0332 3.1998 18.7765V4.43936C3.1998 2.95934 2.98897 2.03743 2.56729 1.67363C2.15387 1.30156 1.57923 1.11553 0.843359 1.11553H0V0.507812H9.04131C11.5631 0.507812 13.7377 0.755859 15.5649 1.25195C17.4005 1.73978 18.9921 2.8932 20.3398 4.71221C21.6876 6.53122 22.3614 8.79258 22.3614 11.4963C22.3614 13.5882 21.9025 15.4981 20.9848 17.2262C20.0753 18.9542 18.711 20.302 16.892 21.2693C15.0813 22.2285 12.7579 22.708 9.92188 22.708H0ZM6.3376 2.23174V21.1081C7.72666 21.414 8.88835 21.567 9.82266 21.567C12.7496 21.567 14.949 20.5748 16.4207 18.5904C17.8924 16.6061 18.6283 14.2951 18.6283 11.6575C18.6283 8.68095 17.818 6.2873 16.1975 4.47656C14.5769 2.65755 12.4106 1.74805 9.69863 1.74805C8.71471 1.74805 7.59437 1.90928 6.3376 2.23174Z" fill="white"/>
<path d="M47.4762 22.7087H38.7201V22.101C40.2249 22.0266 40.9773 21.5759 40.9773 20.7491C40.9773 20.2696 40.7582 19.5089 40.32 18.4671L38.9806 15.2797H30.3857L28.8727 18.7771C28.5089 19.6205 28.327 20.2654 28.327 20.7119C28.327 21.5139 29.1827 21.977 30.8942 22.101V22.7087H23.8993V22.101C24.7427 21.9521 25.3669 21.7248 25.7721 21.4188C26.1855 21.1047 26.7767 20.0546 27.5456 18.2687L35.3591 0H35.9296L43.6562 18.4671C44.1937 19.7569 44.7104 20.6706 45.2065 21.208C45.7026 21.7372 46.4592 22.0348 47.4762 22.101V22.7087ZM38.5217 14.0643L34.7514 5.09736L30.8942 14.0643H38.5217Z" fill="white"/>
<path d="M71.5863 1.11553H70.805C69.8541 1.11553 69.2216 1.34704 68.9074 1.81006C68.6015 2.27308 68.4485 3.12057 68.4485 4.35254V23.0677H67.8532L53.2184 5.1959V18.8633C53.2184 20.3185 53.4169 21.2239 53.8138 21.5794C54.2189 21.9267 54.8059 22.1003 55.5749 22.1003H56.3562V22.708H48.6296V22.1003H49.3985C50.0848 22.1003 50.6512 21.9267 51.0976 21.5794C51.5524 21.2321 51.7798 20.3268 51.7798 18.8633V3.42236C51.0356 2.5542 50.3328 1.95475 49.6714 1.62402C49.0182 1.28503 48.2616 1.11553 47.4017 1.11553V0.507812H53.4293L66.9975 17.1642V4.35254C66.9975 2.9056 66.7907 2.00436 66.3773 1.64883C65.9722 1.29329 65.3893 1.11553 64.6286 1.11553H63.8597V0.507812H71.5863V1.11553Z" fill="white"/>
<path d="M82.4012 22.708H72.8886V22.1003H73.6823C74.6993 22.1003 75.3484 21.8605 75.6295 21.381C75.9189 20.9014 76.0636 20.0332 76.0636 18.7765V4.43936C76.0636 3.04203 75.8817 2.14079 75.5179 1.73564C75.1541 1.32223 74.5422 1.11553 73.6823 1.11553H72.8886V0.507812H82.4012V1.11553H81.6074C80.9542 1.11553 80.392 1.28916 79.9207 1.63643C79.4494 1.98369 79.2138 2.918 79.2138 4.43936V18.7765C79.2138 20.0828 79.3088 20.8807 79.499 21.1701C79.6892 21.4512 79.9827 21.6786 80.3796 21.8522C80.7847 22.0176 81.194 22.1003 81.6074 22.1003H82.4012V22.708Z" fill="white"/>
<path d="M102.977 17.1394L101.067 22.708H83.9515V22.1003H84.7452C85.5224 22.1003 86.1136 21.9019 86.5187 21.505C86.9322 21.1081 87.1389 20.2069 87.1389 18.8013V4.37734C87.1389 2.87253 86.9404 1.95475 86.5436 1.62402C86.1467 1.28503 85.5472 1.11553 84.7452 1.11553H83.9515V0.507812H101.067L101.315 5.36953H100.67C100.38 3.86471 99.9629 2.88079 99.4172 2.41777C98.8798 1.95475 97.8628 1.72324 96.3662 1.72324H90.2767V10.4917H95.1508C96.2918 10.4917 97.1393 10.3057 97.6933 9.93359C98.2555 9.56152 98.5738 8.67269 98.6482 7.26709H99.2436V14.9937H98.6482C98.5077 13.4972 98.1315 12.5753 97.5196 12.228C96.916 11.8725 96.1264 11.6947 95.1508 11.6947H90.2767V19.0121C90.2767 20.0622 90.3841 20.7402 90.5991 21.0461C90.8141 21.3437 91.3185 21.4926 92.1122 21.4926H95.8701C97.4245 21.4926 98.64 21.2445 99.5164 20.7484C100.401 20.2523 101.34 19.0493 102.332 17.1394H102.977Z" fill="white"/>
<path d="M123.465 16.6805L121.568 22.708H104.378V22.1003H105.209C106.143 22.1003 106.772 21.8646 107.094 21.3934C107.417 20.9138 107.578 20.0374 107.578 18.7641V4.43936C107.578 2.95934 107.367 2.03743 106.945 1.67363C106.532 1.30156 105.953 1.11553 105.209 1.11553H104.378V0.507812H114.436V1.11553C113.51 1.11553 112.77 1.20234 112.216 1.37598C111.671 1.54961 111.282 1.81419 111.051 2.16973C110.827 2.51699 110.716 3.39756 110.716 4.81143V18.7641C110.716 19.8803 110.877 20.5831 111.199 20.8725C111.522 21.1536 112.502 21.2941 114.139 21.2941H115.763C117.078 21.2941 118.112 21.2156 118.864 21.0585C119.616 20.9014 120.323 20.5004 120.985 19.8555C121.646 19.2023 122.295 18.1067 122.932 16.5688L123.465 16.6805Z" fill="white"/>
<path d="M147.985 22.7087H139.229V22.101C140.734 22.0266 141.486 21.5759 141.486 20.7491C141.486 20.2696 141.267 19.5089 140.829 18.4671L139.489 15.2797H130.894L129.381 18.7771C129.017 19.6205 128.836 20.2654 128.836 20.7119C128.836 21.5139 129.691 21.977 131.403 22.101V22.7087H124.408V22.101C125.251 21.9521 125.876 21.7248 126.281 21.4188C126.694 21.1047 127.285 20.0546 128.054 18.2687L135.868 0H136.438L144.165 18.4671C144.702 19.7569 145.219 20.6706 145.715 21.208C146.211 21.7372 146.968 22.0348 147.985 22.101V22.7087ZM139.03 14.0643L135.26 5.09736L131.403 14.0643H139.03Z" fill="white"/>
<path d="M1.10532 44.7469V44.3249H1.69099C2.33982 44.3249 2.77332 44.1583 2.99151 43.8253C3.21545 43.4923 3.32741 42.8894 3.32741 42.0166V32.0603C3.32741 31.0325 3.18099 30.3923 2.88816 30.1397C2.60107 29.8813 2.20201 29.7521 1.69099 29.7521H1.10532V29.3301H7.38401C9.13527 29.3301 10.6454 29.5023 11.9143 29.8468C13.189 30.1856 14.2943 30.9866 15.2302 32.2498C16.1661 33.513 16.6341 35.0834 16.6341 36.961C16.6341 38.4136 16.3154 39.74 15.6781 40.94C15.0465 42.1401 14.0991 43.076 12.8359 43.7478C11.5784 44.4139 9.96496 44.7469 7.99551 44.7469H1.10532ZM5.50643 30.5273V43.6358C6.47106 43.8483 7.27779 43.9545 7.92661 43.9545C9.95922 43.9545 11.4865 43.2655 12.5086 41.8875C13.5306 40.5094 14.0417 38.9046 14.0417 37.0729C14.0417 35.0059 13.479 33.3436 12.3536 32.0862C11.2282 30.823 9.7238 30.1914 7.84049 30.1914C7.15721 30.1914 6.37919 30.3033 5.50643 30.5273Z" fill="white"/>
<path d="M27.3853 44.7469H20.7794V44.3249H21.3306C22.0368 44.3249 22.4876 44.1583 22.6828 43.8253C22.8838 43.4923 22.9842 42.8894 22.9842 42.0166V32.0603C22.9842 31.0899 22.8579 30.4641 22.6053 30.1827C22.3526 29.8956 21.9277 29.7521 21.3306 29.7521H20.7794V29.3301H27.3853V29.7521H26.8341C26.3805 29.7521 25.9901 29.8727 25.6628 30.1138C25.3355 30.355 25.1719 31.0038 25.1719 32.0603V42.0166C25.1719 42.9238 25.2379 43.4779 25.37 43.6789C25.502 43.8741 25.7059 44.032 25.9815 44.1526C26.2628 44.2674 26.547 44.3249 26.8341 44.3249H27.3853V44.7469Z" fill="white"/>
<path d="M59.4212 44.7469H52.8755V44.3249H53.4181C53.9004 44.3249 54.2938 44.2043 54.5981 43.9631C54.9024 43.722 55.0545 43.0932 55.0545 42.0769V31.7761L49.1118 44.7469H48.7328L42.7728 31.7761V42.0769C42.7728 43.0932 42.9135 43.722 43.1948 43.9631C43.4762 44.2043 43.8838 44.3249 44.4178 44.3249H44.9604V44.7469H39.5947V44.3249H40.1373C40.6081 44.3249 40.9986 44.2043 41.3086 43.9631C41.6187 43.722 41.7737 43.0932 41.7737 42.0769V32C41.7737 31.2019 41.6445 30.6277 41.3861 30.2775C41.1277 29.9272 40.5306 29.7521 39.5947 29.7521V29.3301H43.9613L49.551 41.3965L55.0545 29.3301H59.4212V29.7521H58.8872C58.4106 29.7521 58.0173 29.8756 57.7073 30.1225C57.3972 30.3636 57.2422 30.9895 57.2422 32V42.0769C57.2422 43.0817 57.3829 43.7076 57.6642 43.9545C57.9513 44.2014 58.359 44.3249 58.8872 44.3249H59.4212V44.7469Z" fill="white"/>
<path d="M79.1814 44.7465H73.1008V44.3245C74.1458 44.2728 74.6683 43.9599 74.6683 43.3857C74.6683 43.0526 74.5161 42.5244 74.2118 41.8009L73.2817 39.5875H67.313L66.2623 42.0162C66.0096 42.6019 65.8833 43.0498 65.8833 43.3598C65.8833 43.9168 66.4776 44.2383 67.6661 44.3245V44.7465H62.8086V44.3245C63.3942 44.2211 63.8277 44.0632 64.1091 43.8508C64.3962 43.6326 64.8067 42.9034 65.3407 41.6631L70.7667 28.9766H71.1629L76.5287 41.8009C76.9019 42.6967 77.2607 43.3311 77.6052 43.7043C77.9498 44.0718 78.4751 44.2785 79.1814 44.3245V44.7465ZM72.963 38.7434L70.3447 32.5164L67.6661 38.7434H72.963Z" fill="white"/>
<path d="M97.8563 44.7469H93.7395L88.5201 37.538C88.1354 37.5553 87.8225 37.5639 87.5813 37.5639C87.455 37.5639 87.2311 37.5553 86.9096 37.538V42.0166C86.9096 43.0387 87.0502 43.6789 87.3316 43.9373C87.6187 44.1957 88.0149 44.3249 88.5201 44.3249H89.123V44.7469H82.5171V44.3249H83.1027C83.7401 44.3249 84.1707 44.1612 84.3946 43.8339C84.6243 43.5009 84.7391 42.8951 84.7391 42.0166V32.0603C84.7391 31.0383 84.5956 30.3981 84.3085 30.1397C84.0214 29.8813 83.6195 29.7521 83.1027 29.7521H82.5171V29.3301H88.1326C89.5106 29.3301 90.6159 29.4191 91.4485 29.5971C92.2868 29.7751 93.0131 30.2057 93.6275 30.889C94.2419 31.5723 94.5491 32.3761 94.5491 33.3006C94.5491 35.3676 93.283 36.6825 90.7508 37.2452L93.9376 41.6635C94.7299 42.7602 95.4017 43.4607 95.9529 43.765C96.5099 44.0693 97.1444 44.256 97.8563 44.3249V44.7469ZM86.9096 30.4067V36.8232H87.5469C88.9077 36.8232 89.9872 36.5303 90.7853 35.9447C91.5891 35.3533 91.9911 34.5207 91.9911 33.447C91.9911 32.3388 91.6552 31.5206 90.9834 30.9923C90.3173 30.4584 89.5537 30.1914 88.6924 30.1914C87.9632 30.1914 87.3689 30.2631 86.9096 30.4067Z" fill="white"/>
<path d="M107.488 44.7469H100.882V44.3249H101.433C102.139 44.3249 102.59 44.1583 102.785 43.8253C102.986 43.4923 103.087 42.8894 103.087 42.0166V32.0603C103.087 31.0899 102.961 30.4641 102.708 30.1827C102.455 29.8956 102.03 29.7521 101.433 29.7521H100.882V29.3301H107.488V29.7521H106.937C106.483 29.7521 106.093 29.8727 105.765 30.1138C105.438 30.355 105.274 31.0038 105.274 32.0603V42.0166C105.274 42.9238 105.34 43.4779 105.473 43.6789C105.605 43.8741 105.808 44.032 106.084 44.1526C106.365 44.2674 106.65 44.3249 106.937 44.3249H107.488V44.7469Z" fill="white"/>
<path d="M127.257 29.7521H126.714C126.054 29.7521 125.615 29.9129 125.396 30.2344C125.184 30.556 125.078 31.1445 125.078 32V44.9966H124.664L114.501 32.5857V42.0769C114.501 43.0875 114.639 43.7162 114.915 43.9631C115.196 44.2043 115.604 44.3249 116.138 44.3249H116.68V44.7469H111.315V44.3249H111.849C112.325 44.3249 112.718 44.2043 113.028 43.9631C113.344 43.722 113.502 43.0932 113.502 42.0769V31.3541C112.985 30.7512 112.497 30.3349 112.038 30.1052C111.584 29.8698 111.059 29.7521 110.462 29.7521V29.3301H114.648L124.07 40.897V32C124.07 30.9952 123.926 30.3693 123.639 30.1225C123.358 29.8756 122.953 29.7521 122.425 29.7521H121.891V29.3301H127.257V29.7521Z" fill="white"/>
<path d="M146.181 36.9433C146.181 39.2343 145.464 41.1665 144.028 42.7397C142.593 44.313 140.784 45.0996 138.602 45.0996C137.121 45.0996 135.823 44.7522 134.709 44.0575C133.595 43.3627 132.711 42.4124 132.057 41.2067C131.408 39.9951 131.083 38.5855 131.083 36.9778C131.083 34.6581 131.83 32.7461 133.323 31.2417C134.821 29.7316 136.641 28.9766 138.783 28.9766C140.196 28.9766 141.447 29.3268 142.538 30.0273C143.629 30.7278 144.508 31.6781 145.174 32.8781C145.846 34.0724 146.181 35.4275 146.181 36.9433ZM143.58 37.2534C143.58 32.2867 141.91 29.8034 138.568 29.8034C137.649 29.8034 136.828 30.0474 136.105 30.5355C135.387 31.0178 134.804 31.7958 134.356 32.8695C133.908 33.9432 133.684 35.2983 133.684 36.9347C133.684 39.174 134.112 40.9598 134.968 42.2919C135.829 43.624 137.032 44.29 138.576 44.29C140.207 44.29 141.447 43.6642 142.297 42.4124C143.153 41.155 143.58 39.4353 143.58 37.2534Z" fill="white"/>
</svg>
